<svg width="1277" height="613" viewBox="0 0 1277 613" fill="none" xmlns="http://www.w3.org/2000/svg">
<path d="M1269.95 41.2209C1277.07 62.5764 1270.84 89.5359 1253.19 103.319C1235.58 117.139 1206.6 117.859 1189.14 104.379C1171.68 90.8612 1165.74 63.1444 1173.08 41.448C1180.47 19.7138 1201.14 3.9622 1221.74 4.00007C1242.34 4.03793 1262.83 19.8274 1269.95 41.2209Z" stroke="#FB00FF" stroke-width="8"/>
<path d="M703.735 567.725C707.182 579.386 703.439 593.934 694.278 601.93C685.018 609.926 670.44 611.259 661.87 604.04C653.3 596.821 650.738 581.052 654.679 568.613C658.52 556.286 668.765 547.291 679.207 547.18C689.648 547.069 700.287 555.953 703.735 567.725Z" stroke="#FB00FF" stroke-width="8"/>
<path d="M589.816 67.813C591.295 72.8148 589.689 79.055 585.76 82.4848C581.788 85.9145 575.535 86.4862 571.859 83.3898C568.183 80.2935 567.084 73.5293 568.774 68.1941C570.422 62.9066 574.816 59.0481 579.295 59.0004C583.774 58.9528 588.337 62.7637 589.816 67.813Z" stroke="#FB00FF" stroke-width="5"/>
<path d="M46.8722 475.411C50.2434 487.235 47.2468 501.452 39.3808 507.786C31.39 514.12 18.7794 512.572 10.414 505.534C2.04862 498.355 -1.9468 485.686 0.924909 474.707C3.92147 463.587 13.7852 454.156 23.6489 454.156C33.5125 454.156 43.5011 463.587 46.8722 475.411Z" stroke="#FB00FF" stroke-width="8"/>
</svg>
